<svg id="logo" xmlns="http://www.w3.org/2000/svg" viewBox="0 0 157.77 32.64"><defs><style>.cls-1{fill:#231f20;}.cls-2{fill:#336;}</style></defs><path class="cls-1" d="M32,112.32a15.8,15.8,0,0,1-7.37-1.75,13.34,13.34,0,0,1-5.44-5.31,17.37,17.37,0,0,1-2.07-8.88,18.53,18.53,0,0,1,1.23-7,14.89,14.89,0,0,1,3.36-5.16,14.41,14.41,0,0,1,4.84-3.19A15.12,15.12,0,0,1,32.18,80a12.55,12.55,0,0,1,5.6,1.22,15,15,0,0,1,4.1,2.91l-4.32,5.28a12,12,0,0,0-2.38-1.66,5.9,5.9,0,0,0-2.8-.65A5.84,5.84,0,0,0,29,88.15a7.42,7.42,0,0,0-2.49,3.1,11.34,11.34,0,0,0-.94,4.85,10.77,10.77,0,0,0,1.85,6.74,5.88,5.88,0,0,0,4.87,2.38,6.39,6.39,0,0,0,3.24-.82,10.73,10.73,0,0,0,2.42-1.87l4.32,5.18a12.63,12.63,0,0,1-4.6,3.46A14,14,0,0,1,32,112.32Z" transform="translate(-17.11 -79.68)"/><path class="cls-1" d="M57.82,112.32a14.62,14.62,0,0,1-7.59-1.94,13.17,13.17,0,0,1-5.08-5.6A19.4,19.4,0,0,1,43.32,96a18.94,18.94,0,0,1,1.83-8.71,12.78,12.78,0,0,1,5.08-5.45A15,15,0,0,1,57.82,80a15,15,0,0,1,7.58,1.87,12.8,12.8,0,0,1,5.09,5.45A19.07,19.07,0,0,1,72.31,96a19.53,19.53,0,0,1-1.82,8.78,13.2,13.2,0,0,1-5.09,5.6A14.59,14.59,0,0,1,57.82,112.32Zm0-7.1a5,5,0,0,0,4.44-2.5A12.28,12.28,0,0,0,63.86,96a11.54,11.54,0,0,0-1.6-6.6,5.38,5.38,0,0,0-8.86,0A11.37,11.37,0,0,0,51.77,96a12.11,12.11,0,0,0,1.63,6.72A5.05,5.05,0,0,0,57.82,105.22Z" transform="translate(-17.11 -79.68)"/><path class="cls-1" d="M87.77,112.32a18.67,18.67,0,0,1-6.1-1.1A17.12,17.12,0,0,1,76,107.86l4.7-5.67a15.67,15.67,0,0,0,3.63,2.19,9.25,9.25,0,0,0,3.67.84,4.93,4.93,0,0,0,2.71-.58,1.86,1.86,0,0,0,.84-1.63,1.8,1.8,0,0,0-1.13-1.68c-.75-.39-1.78-.83-3.09-1.35L83.4,98.35A11.54,11.54,0,0,1,79,95.18a8,8,0,0,1-1.9-5.52,8.48,8.48,0,0,1,1.49-4.87,10.69,10.69,0,0,1,4.1-3.5,13.25,13.25,0,0,1,6-1.32,15.45,15.45,0,0,1,5.45,1,14.11,14.11,0,0,1,4.92,3.14L95,89.33a14.62,14.62,0,0,0-3-1.68,8.54,8.54,0,0,0-3.19-.58,4.66,4.66,0,0,0-2.38.53,1.73,1.73,0,0,0-.89,1.58,1.87,1.87,0,0,0,1.25,1.71q1.25.6,3.36,1.41l3.79,1.49A10.24,10.24,0,0,1,98.38,97a8.53,8.53,0,0,1,1.58,5.33,9.11,9.11,0,0,1-1.42,4.92,10.1,10.1,0,0,1-4.15,3.67A14.42,14.42,0,0,1,87.77,112.32Z" transform="translate(-17.11 -79.68)"/><path class="cls-2" d="M105.82,111.74V80.26h4.8l6,16.8c.39,1.08.76,2.18,1.13,3.28s.75,2.2,1.13,3.29h.19c.39-1.09.75-2.18,1.08-3.29s.7-2.2,1.08-3.28l6-16.8h4.85v31.48h-3.74V94.42c0-1.41.06-3,.19-4.68s.24-3.26.34-4.64h-.2l-2.49,7.16-6,16.32h-2.64l-6-16.32-2.49-7.16h-.19c.09,1.38.2,2.92.31,4.64s.17,3.27.17,4.68v17.32Z" transform="translate(-17.11 -79.68)"/><path class="cls-2" d="M140.71,111.74V80.26h4v31.48Z" transform="translate(-17.11 -79.68)"/><path class="cls-2" d="M165.24,112.32a13,13,0,0,1-7-1.94,13.39,13.39,0,0,1-4.9-5.6,19.67,19.67,0,0,1-1.8-8.78,19.34,19.34,0,0,1,1.83-8.74,13.52,13.52,0,0,1,5-5.61,13.27,13.27,0,0,1,7.15-2,10.59,10.59,0,0,1,5.09,1.18,12.28,12.28,0,0,1,3.55,2.71L172,86.16A10.15,10.15,0,0,0,169.13,84a7.82,7.82,0,0,0-3.6-.82,8.86,8.86,0,0,0-5.21,1.56,10.11,10.11,0,0,0-3.46,4.4,17,17,0,0,0-1.22,6.76,17.79,17.79,0,0,0,1.2,6.84,10.16,10.16,0,0,0,3.38,4.49,8.55,8.55,0,0,0,5.16,1.59,8.37,8.37,0,0,0,4-1,12.41,12.41,0,0,0,3.26-2.6l2.21,2.5a14,14,0,0,1-4.23,3.36A11.73,11.73,0,0,1,165.24,112.32Z" transform="translate(-17.11 -79.68)"/></svg>